<svg width="25" height="25" viewBox="0 0 25 25" shape-rendering="geometricPrecision" xmlns="http://www.w3.org/2000/svg" xmlns:xlink="http://www.w3.org/1999/xlink"><g><path d="M13.7112 2.31L13.7112 0.75C13.7112 0.34 13.3712 0 12.9612 0C12.5512 0 12.2112 0.34 12.2112 0.75L12.2112 2.25L5.71117 2.25L5.71117 0.75C5.71117 0.34 5.37117 0 4.96117 0C4.55117 0 4.21117 0.34 4.21117 0.75L4.21117 2.31C1.51117 2.56 0.201167 4.17 0.00116668 6.56C-0.0188333 6.85 0.221167 7.09 0.501167 7.09L17.4212 7.09C17.7112 7.09 17.9512 6.84 17.9212 6.56C17.7212 4.17 16.4112 2.56 13.7112 2.31Z" shape-rendering="geometricPrecision" fill="#B2C7CB" style="fill-rule:evenodd" transform="matrix(1 0 0 1 3.7054898738861084 1.75)"></path><path d="M17 0L1 0C0.45 0 6.70552e-08 0.45 6.70552e-08 1L6.70552e-08 7.16C6.70552e-08 10.16 1.5 12.16 5 12.16L13 12.16C16.5 12.16 18 10.16 18 7.16L18 1C18 0.45 17.55 0 17 0ZM6.21 8.37C6.16 8.41 6.11 8.46 6.06 8.49C6 8.53 5.94 8.56 5.88 8.58C5.82 8.61 5.76 8.63 5.7 8.64C5.63 8.65 5.57 8.66 5.5 8.66C5.37 8.66 5.24 8.63 5.12 8.58C4.99 8.53 4.89 8.46 4.79 8.37C4.61 8.18 4.5 7.92 4.5 7.66C4.5 7.4 4.61 7.14 4.79 6.95C4.89 6.86 4.99 6.79 5.12 6.74C5.3 6.66 5.5 6.64 5.7 6.68C5.76 6.69 5.82 6.71 5.88 6.74C5.94 6.76 6 6.79 6.06 6.83C6.11 6.87 6.16 6.91 6.21 6.95C6.39 7.14 6.5 7.4 6.5 7.66C6.5 7.92 6.39 8.18 6.21 8.37ZM6.21 4.87C6.02 5.05 5.76 5.16 5.5 5.16C5.24 5.16 4.98 5.05 4.79 4.87C4.61 4.68 4.5 4.42 4.5 4.16C4.5 3.9 4.61 3.64 4.79 3.45C5.07 3.17 5.51 3.08 5.88 3.24C6.01 3.29 6.12 3.36 6.21 3.45C6.39 3.64 6.5 3.9 6.5 4.16C6.5 4.42 6.39 4.68 6.21 4.87ZM9.71 8.37C9.52 8.55 9.26 8.66 9 8.66C8.74 8.66 8.48 8.55 8.29 8.37C8.11 8.18 8 7.92 8 7.66C8 7.4 8.11 7.14 8.29 6.95C8.66 6.58 9.34 6.58 9.71 6.95C9.89 7.14 10 7.4 10 7.66C10 7.92 9.89 8.18 9.71 8.37ZM9.71 4.87C9.66 4.91 9.61 4.95 9.56 4.99C9.5 5.03 9.44 5.06 9.38 5.08C9.32 5.11 9.26 5.13 9.2 5.14C9.13 5.15 9.07 5.16 9 5.16C8.74 5.16 8.48 5.05 8.29 4.87C8.11 4.68 8 4.42 8 4.16C8 3.9 8.11 3.64 8.29 3.45C8.38 3.36 8.49 3.29 8.62 3.24C8.99 3.08 9.43 3.17 9.71 3.45C9.89 3.64 10 3.9 10 4.16C10 4.42 9.89 4.68 9.71 4.87ZM13.21 8.37C13.02 8.55 12.76 8.66 12.5 8.66C12.24 8.66 11.98 8.55 11.79 8.37C11.61 8.18 11.5 7.92 11.5 7.66C11.5 7.4 11.61 7.14 11.79 6.95C12.16 6.58 12.84 6.58 13.21 6.95C13.39 7.14 13.5 7.4 13.5 7.66C13.5 7.92 13.39 8.18 13.21 8.37ZM13.21 4.87C13.16 4.91 13.11 4.95 13.06 4.99C13 5.03 12.94 5.06 12.88 5.08C12.82 5.11 12.76 5.13 12.7 5.14C12.63 5.15 12.56 5.16 12.5 5.16C12.24 5.16 11.98 5.05 11.79 4.87C11.61 4.68 11.5 4.42 11.5 4.16C11.5 3.9 11.61 3.64 11.79 3.45C11.89 3.36 11.99 3.29 12.12 3.24C12.3 3.16 12.5 3.14 12.7 3.18C12.76 3.19 12.82 3.21 12.88 3.24C12.94 3.26 13 3.29 13.06 3.33C13.11 3.37 13.16 3.41 13.21 3.45C13.39 3.64 13.5 3.9 13.5 4.16C13.5 4.42 13.39 4.68 13.21 4.87Z" shape-rendering="geometricPrecision" fill="#B2C7CB" style="fill-rule:evenodd" transform="matrix(1 0 0 1 3.666656494140625 10.34000015258789)"></path></g></svg>