<svg width="25" height="25" viewBox="0 0 25 25" fill="none" xmlns="http://www.w3.org/2000/svg">
<g clip-path="url(#clip0_868_19830)">
<path d="M9.23325 20.8596L9.23338 20.8597C10.1975 21.7875 11.4322 22.25 12.6667 22.25C13.9016 22.25 15.1352 21.7872 16.0883 20.8614L16.0901 20.8596C18.9227 18.136 21.9073 13.9489 20.7991 9.06081L9.23325 20.8596ZM9.23325 20.8596C6.40101 18.1363 3.41598 13.9392 4.52426 9.05081L9.23325 20.8596ZM12.6667 2.75C16.0326 2.75 19.8128 4.72167 20.7991 9.06057L4.52431 9.05057C5.5103 4.71277 9.29944 2.75 12.6567 2.75H12.6567H12.6568H12.6569H12.6569H12.657H12.657H12.6571H12.6572H12.6572H12.6573H12.6573H12.6574H12.6574H12.6575H12.6575H12.6576H12.6577H12.6577H12.6578H12.6578H12.6579H12.6579H12.658H12.658H12.6581H12.6581H12.6582H12.6582H12.6583H12.6583H12.6584H12.6585H12.6585H12.6586H12.6586H12.6587H12.6587H12.6588H12.6588H12.6589H12.6589H12.659H12.659H12.6591H12.6591H12.6592H12.6592H12.6592H12.6593H12.6593H12.6594H12.6594H12.6595H12.6595H12.6596H12.6596H12.6597H12.6597H12.6598H12.6598H12.6599H12.6599H12.6599H12.66H12.66H12.6601H12.6601H12.6602H12.6602H12.6603H12.6603H12.6603H12.6604H12.6604H12.6605H12.6605H12.6606H12.6606H12.6606H12.6607H12.6607H12.6608H12.6608H12.6608H12.6609H12.6609H12.661H12.661H12.6611H12.6611H12.6611H12.6612H12.6612H12.6612H12.6613H12.6613H12.6614H12.6614H12.6614H12.6615H12.6615H12.6616H12.6616H12.6616H12.6617H12.6617H12.6617H12.6618H12.6618H12.6619H12.6619H12.6619H12.662H12.662H12.662H12.6621H12.6621H12.6621H12.6622H12.6622H12.6622H12.6623H12.6623H12.6623H12.6624H12.6624H12.6624H12.6625H12.6625H12.6625H12.6626H12.6626H12.6626H12.6627H12.6627H12.6627H12.6628H12.6628H12.6628H12.6629H12.6629H12.6629H12.6629H12.663H12.663H12.663H12.6631H12.6631H12.6631H12.6632H12.6632H12.6632H12.6632H12.6633H12.6633H12.6633H12.6634H12.6634H12.6634H12.6634H12.6635H12.6635H12.6635H12.6636H12.6636H12.6636H12.6636H12.6637H12.6637H12.6637H12.6637H12.6638H12.6638H12.6638H12.6638H12.6639H12.6639H12.6639H12.6639H12.664H12.664H12.664H12.664H12.6641H12.6641H12.6641H12.6641H12.6642H12.6642H12.6642H12.6642H12.6642H12.6643H12.6643H12.6643H12.6643H12.6644H12.6644H12.6644H12.6644H12.6644H12.6645H12.6645H12.6645H12.6645H12.6646H12.6646H12.6646H12.6646H12.6646H12.6647H12.6647H12.6647H12.6647H12.6647H12.6648H12.6648H12.6648H12.6648H12.6648H12.6649H12.6649H12.6649H12.6649H12.6649H12.6649H12.665H12.665H12.665H12.665H12.665H12.6651H12.6651H12.6651H12.6651H12.6651H12.6651H12.6652H12.6652H12.6652H12.6652H12.6652H12.6652H12.6653H12.6653H12.6653H12.6653H12.6653H12.6653H12.6654H12.6654H12.6654H12.6654H12.6654H12.6654H12.6654H12.6655H12.6655H12.6655H12.6655H12.6655H12.6655H12.6655H12.6656H12.6656H12.6656H12.6656H12.6656H12.6656H12.6656H12.6656H12.6657H12.6657H12.6657H12.6657H12.6657H12.6657H12.6657H12.6657H12.6658H12.6658H12.6658H12.6658H12.6658H12.6658H12.6658H12.6658H12.6659H12.6659H12.6659H12.6659H12.6659H12.6659H12.6659H12.6659H12.6659H12.666H12.666H12.666H12.666H12.666H12.666H12.666H12.666H12.666H12.666H12.666H12.6661H12.6661H12.6661H12.6661H12.6661H12.6661H12.6661H12.6661H12.6661H12.6661H12.6661H12.6662H12.6662H12.6662H12.6662H12.6662H12.6662H12.6662H12.6662H12.6662H12.6662H12.6662H12.6662H12.6662H12.6663H12.6663H12.6663H12.6663H12.6663H12.6663H12.6663H12.6664H12.6664H12.6664H12.6664H12.6664H12.6664H12.6664H12.6664H12.6664H12.6665H12.6665H12.6665H12.6665H12.6665H12.6665H12.6665H12.6665H12.6665H12.6665H12.6665H12.6665H12.6666H12.6666H12.6666H12.6666H12.6666H12.6666H12.6666H12.6666H12.6666H12.6666H12.6666H12.6666H12.6667H12.6667H12.6667H12.6667H12.6667ZM9.01669 10.81C9.01669 12.8261 10.6505 14.46 12.6667 14.46C14.6828 14.46 16.3167 12.8261 16.3167 10.81C16.3167 8.79386 14.6828 7.16 12.6667 7.16C10.6505 7.16 9.01669 8.79386 9.01669 10.81Z" fill="#B2C7CB" stroke="#B2C7CB"/>
</g>
<defs>
<clipPath id="clip0_868_19830">
<rect width="24" height="24" fill="white" transform="translate(0.666687 0.5)"/>
</clipPath>
</defs>
</svg>
