<?xml version="1.0" encoding="UTF-8"?>
<!DOCTYPE svg PUBLIC "-//W3C//DTD SVG 1.1//EN" "http://www.w3.org/Graphics/SVG/1.1/DTD/svg11.dtd">
<!-- Creator: CorelDRAW 2018 (64-Bit) -->
<svg xmlns="http://www.w3.org/2000/svg" xml:space="preserve" width="179px" height="35px" version="1.1" style="shape-rendering:geometricPrecision; text-rendering:geometricPrecision; image-rendering:optimizeQuality; fill-rule:evenodd; clip-rule:evenodd"
viewBox="0 0 288.93 56.39"
 xmlns:xlink="http://www.w3.org/1999/xlink">
 <defs>
  <style type="text/css">
   <![CDATA[
    .fil2 {fill:#00A3A1}
    .fil1 {fill:#FF0055}
    .fil0 {fill:#FFDA57}
    .fil3 {fill:#00848F;fill-rule:nonzero}
   ]]>
  </style>
 </defs>
 <g id="Слой_x0020_1">
  <metadata id="CorelCorpID_0Corel-Layer"/>
  <g id="_2685600899232">
   <path class="fil0" d="M89.47 6.9l0.09 1.37c0.04,0.28 0.01,-0.06 0.02,0.25l0.33 4.85c0.02,0.27 0.03,0.25 0.07,0.68 0.19,2.18 0.37,4.54 0.57,6.49l2.03 10.78c0.16,0.65 0.24,0.94 0.39,1.54l0.92 3.76c1.2,4.34 3.91,11.42 5.66,15.67 0.36,0.88 0.81,1.86 1.06,2.79l-33.07 1.15c-0.73,0.03 -1.78,0.12 -2.23,0.12 -0.78,-0.01 -1.56,0.01 -2.36,0.04l0.74 -2.97c0.18,-0.92 0.9,-3 1.06,-4.11l7.62 -29.62c0.18,-0.61 0.31,-1.34 0.48,-2.03 0.15,-0.65 0.37,-1.41 0.57,-2.08 0.35,-1.21 0.13,-0.8 0.99,-1.57l6.85 -6.4c0.02,-0.02 0.05,-0.05 0.07,-0.07l1.34 -1.24c0.02,-0.02 0.05,-0.04 0.07,-0.06l6.76 -6.24c0.22,0.45 0.06,4.15 0.04,5.41 0,0.48 -0.02,0.4 -0.03,0.77l-0.04 0.72z"/>
   <path class="fil1" d="M60.15 53.38l-18.39 -0.31c-2.24,0.09 -1.69,0.65 -0.8,-3.49 0.18,-0.83 0.48,-1.52 0.67,-2.38l4.23 -16.83c0.24,-0.81 0.47,-1.66 0.67,-2.38l1.8 -7.21c0.1,-0.42 0.21,-0.7 0.31,-1.15 0.12,-0.59 0.16,-0.78 0.3,-1.29 0.13,-0.49 1.1,-4.52 1.31,-4.78l7.97 -5.9c0.38,-0.29 0.52,-0.43 0.94,-0.69 1.04,-0.66 4.54,-3.42 5.45,-3.94l-0.71 2.09c-0.16,0.32 -0.19,0.4 -0.29,0.77l-1.01 2.98c-0.3,1.1 -0.61,2.06 -0.91,3.08 -0.74,2.48 -2.18,8.73 -2.45,11.44 -0.07,0.72 -0.18,0.92 -0.28,1.7l-0.27 1.7c-0.4,6.24 -0.67,6.68 -0.39,13.88 0.06,1.72 0.75,7.94 1.08,9.6 0.11,0.56 0.31,1.09 0.43,1.65l0.34 1.46z"/>
   <path class="fil2" d="M32.2 50.16l-24.11 -3.57c-0.73,-0.09 -1.29,-0.17 -1.97,-0.25 -0.72,-0.1 -1.41,-0.23 -2.06,-0.32l-4.06 -0.69 5.73 -4.19c0.29,-0.19 0.43,-0.32 0.72,-0.5l2.9 -2.13c0.34,-0.28 0.3,-0.24 0.73,-0.5 0.54,-0.32 0.97,-0.72 1.49,-1.09 0.54,-0.39 0.84,-0.66 1.43,-1.02l4.76 -3.4c0.15,-0.12 0.17,-0.15 0.37,-0.3l10.9 -7.87c0.36,-0.24 0.39,-0.2 0.74,-0.48 3.58,-2.8 8.62,-6.12 12.39,-8.96l4.51 -3.11 -6.87 11.36c-0.19,0.43 -0.38,0.75 -0.57,1.17l-1.83 3.92c-1.69,3.8 -3.3,9.46 -3.95,13.56 -0.25,1.52 -0.6,2.5 -0.75,4.14 -0.03,0.37 -0.05,0.26 -0.11,0.67l-0.39 3.56z"/>
  </g>
  <path class="fil3" d="M155.11 11.94l0 40.87 -7.47 0 0 -11.39 -10.11 0 -0.81 0 -7.59 11.39 -8 0 8.75 -12.61c-2.84,-1.05 -5.03,-2.72 -6.56,-4.99 -1.54,-2.28 -2.31,-5.03 -2.31,-8.27 0,-3.11 0.7,-5.8 2.1,-8.05 1.4,-2.26 3.39,-3.98 5.96,-5.17 2.57,-1.19 5.58,-1.78 9.05,-1.78l16.99 0zm-16.76 6.42c-3.11,0 -5.5,0.72 -7.15,2.16 -1.66,1.44 -2.48,3.55 -2.48,6.31 0,2.68 0.8,4.76 2.39,6.22 1.6,1.46 3.91,2.19 6.95,2.19l9.58 0 0 -16.88 -9.29 0z"/>
  <polygon id="1" class="fil3" points="171.34,11.94 180.97,25.6 190.61,11.94 199.48,11.94 185.76,31.56 200.59,52.81 191.6,52.81 180.97,37.92 170.41,52.81 161.65,52.81 176.42,31.85 162.58,11.94 "/>
  <polygon id="2" class="fil3" points="234.93,18.36 221.38,18.36 221.38,52.81 213.85,52.81 213.85,18.36 200.36,18.36 200.36,11.94 234.93,11.94 "/>
  <path id="3" class="fil3" d="M260.33 25.78c4.9,0 8.66,1.1 11.29,3.3 2.63,2.2 3.94,5.46 3.94,9.78 0,4.51 -1.44,7.97 -4.32,10.36 -2.88,2.39 -6.93,3.59 -12.14,3.59l-17.58 0 0 -40.87 7.48 0 0 13.84 11.33 0zm-1.58 21.19c2.96,0 5.23,-0.68 6.83,-2.04 1.6,-1.36 2.39,-3.35 2.39,-5.96 0,-4.94 -3.07,-7.41 -9.22,-7.41l-9.75 0 0 15.41 9.75 0zm22.71 -35.03l7.47 0 0 40.87 -7.47 0 0 -40.87z"/>
 </g>
</svg>
