<svg width="19" height="18" viewBox="0 0 19 18" fill="none" xmlns="http://www.w3.org/2000/svg">
<path d="M16.4292 13.8525L15.1917 14.145C14.9142 14.2125 14.6967 14.4225 14.6367 14.7L14.3742 15.8025C14.2317 16.4025 13.4667 16.59 13.0692 16.1175L10.8267 13.5375C10.6467 13.3275 10.7442 12.9975 11.0142 12.93C12.3417 12.6075 13.5342 11.865 14.4117 10.8075C14.5542 10.635 14.8092 10.6125 14.9667 10.77L16.6317 12.435C17.2017 13.005 16.9992 13.7175 16.4292 13.8525Z" fill="white"/>
<path d="M2.5167 13.8525L3.7542 14.145C4.0317 14.2125 4.2492 14.4225 4.3092 14.7L4.5717 15.8025C4.7142 16.4025 5.4792 16.59 5.8767 16.1175L8.1192 13.5375C8.2992 13.3275 8.2017 12.9975 7.9317 12.93C6.6042 12.6075 5.4117 11.865 4.5342 10.8075C4.3917 10.635 4.1367 10.6125 3.9792 10.77L2.3142 12.435C1.7442 13.005 1.9467 13.7175 2.5167 13.8525Z" fill="white"/>
<path d="M9.4917 1.5C6.5892 1.5 4.2417 3.8475 4.2417 6.75C4.2417 7.8375 4.5642 8.835 5.1192 9.6675C5.9292 10.8675 7.2117 11.715 8.7042 11.9325C8.9592 11.9775 9.2217 12 9.4917 12C9.7617 12 10.0242 11.9775 10.2792 11.9325C11.7717 11.715 13.0542 10.8675 13.8642 9.6675C14.4192 8.835 14.7417 7.8375 14.7417 6.75C14.7417 3.8475 12.3942 1.5 9.4917 1.5ZM11.7867 6.585L11.1642 7.2075C11.0592 7.3125 10.9992 7.515 11.0367 7.665L11.2167 8.4375C11.3592 9.045 11.0367 9.285 10.4967 8.9625L9.7467 8.52C9.6117 8.4375 9.3867 8.4375 9.2517 8.52L8.5017 8.9625C7.9617 9.2775 7.6392 9.045 7.7817 8.4375L7.9617 7.665C7.9917 7.5225 7.9392 7.3125 7.8342 7.2075L7.1967 6.585C6.8292 6.2175 6.9492 5.85 7.4592 5.7675L8.2617 5.6325C8.3967 5.61 8.5542 5.49 8.6142 5.37L9.0567 4.485C9.2967 4.005 9.6867 4.005 9.9267 4.485L10.3692 5.37C10.4292 5.49 10.5867 5.61 10.7292 5.6325L11.5317 5.7675C12.0342 5.85 12.1542 6.2175 11.7867 6.585Z" fill="white"/>
</svg>
