<svg width="19" height="18" viewBox="0 0 19 18" fill="none" xmlns="http://www.w3.org/2000/svg">
<path fill-rule="evenodd" clip-rule="evenodd" d="M8.15689 2.40001C8.03893 2.50674 7.91498 2.60665 7.78564 2.69926C7.56214 2.84926 7.31089 2.95276 7.04689 3.00526C6.93214 3.02776 6.81214 3.03751 6.57289 3.05626C5.97214 3.10426 5.67139 3.12826 5.42089 3.21676C5.13446 3.31788 4.87431 3.48186 4.65952 3.69664C4.44474 3.91143 4.28076 4.17158 4.17964 4.45801C4.09114 4.70851 4.06714 5.00926 4.01914 5.61001C4.01095 5.76883 3.99393 5.92708 3.96814 6.08401C3.91564 6.34801 3.81214 6.59926 3.66214 6.82276C3.59689 6.92026 3.51889 7.01176 3.36289 7.19401C2.97214 7.65301 2.77639 7.8825 2.66164 8.12251C2.39689 8.67751 2.39689 9.3225 2.66164 9.87751C2.77639 10.1175 2.97214 10.347 3.36289 10.806C3.51889 10.9883 3.59689 11.0798 3.66214 11.1773C3.81214 11.4008 3.91564 11.652 3.96814 11.916C3.99064 12.0308 4.00039 12.1508 4.01914 12.39C4.06714 12.9908 4.09114 13.2915 4.17964 13.542C4.28076 13.8284 4.44474 14.0886 4.65952 14.3034C4.87431 14.5182 5.13446 14.6821 5.42089 14.7833C5.67139 14.8718 5.97214 14.8958 6.57289 14.9438C6.81214 14.9625 6.93214 14.9723 7.04689 14.9948C7.31089 15.0473 7.56214 15.1515 7.78564 15.3008C7.88314 15.366 7.97464 15.444 8.15689 15.6C8.61589 15.9908 8.84539 16.1865 9.08539 16.3013C9.64039 16.566 10.2854 16.566 10.8404 16.3013C11.0804 16.1865 11.3099 15.9908 11.7689 15.6C11.9511 15.444 12.0426 15.366 12.1401 15.3008C12.3636 15.1508 12.6149 15.0473 12.8789 14.9948C12.9936 14.9723 13.1136 14.9625 13.3529 14.9438C13.9536 14.8958 14.2544 14.8718 14.5049 14.7833C14.7913 14.6821 15.0515 14.5182 15.2662 14.3034C15.481 14.0886 15.645 13.8284 15.7461 13.542C15.8346 13.2915 15.8586 12.9908 15.9066 12.39C15.9254 12.1508 15.9351 12.0308 15.9576 11.916C16.0101 11.652 16.1144 11.4008 16.2636 11.1773C16.3289 11.0798 16.4069 10.9883 16.5629 10.806C16.9536 10.347 17.1494 10.1175 17.2641 9.87751C17.5289 9.3225 17.5289 8.67751 17.2641 8.12251C17.1494 7.8825 16.9536 7.65301 16.5629 7.19401C16.4562 7.07605 16.3562 6.9521 16.2636 6.82276C16.1138 6.59917 16.0098 6.34807 15.9576 6.08401C15.9319 5.92707 15.9148 5.76883 15.9066 5.61001C15.8586 5.00926 15.8346 4.70851 15.7461 4.45801C15.645 4.17158 15.481 3.91143 15.2662 3.69664C15.0515 3.48186 14.7913 3.31788 14.5049 3.21676C14.2544 3.12826 13.9536 3.10426 13.3529 3.05626C13.1941 3.04807 13.0358 3.03105 12.8789 3.00526C12.6148 2.95312 12.3637 2.84911 12.1401 2.69926C12.0109 2.60645 11.887 2.50655 11.7689 2.40001C11.3099 2.00926 11.0804 1.81351 10.8404 1.69876C10.5664 1.56779 10.2666 1.49982 9.96289 1.49982C9.6592 1.49982 9.35938 1.56779 9.08539 1.69876C8.84539 1.81351 8.61589 2.00926 8.15689 2.40001ZM12.8361 6.12751C12.9504 6.24196 13.0145 6.39706 13.0145 6.55876C13.0145 6.72046 12.9504 6.87555 12.8361 6.99001L7.95289 11.874C7.89725 11.9349 7.82984 11.9839 7.75474 12.018C7.67964 12.0521 7.59841 12.0707 7.51594 12.0726C7.43347 12.0744 7.35148 12.0595 7.27492 12.0288C7.19836 11.9981 7.12882 11.9522 7.07049 11.8939C7.01216 11.8356 6.96626 11.766 6.93555 11.6895C6.90485 11.6129 6.88997 11.5309 6.89183 11.4485C6.89369 11.366 6.91225 11.2847 6.94637 11.2096C6.9805 11.1346 7.02949 11.0671 7.09039 11.0115L11.9729 6.12826C12.0873 6.01403 12.2424 5.94988 12.4041 5.94988C12.5658 5.94988 12.7209 6.01403 12.8354 6.12826M12.8106 11.0355C12.8106 11.2513 12.7249 11.4583 12.5723 11.6109C12.4197 11.7635 12.2127 11.8493 11.9969 11.8493C11.7811 11.8493 11.5741 11.7635 11.4215 11.6109C11.2689 11.4583 11.1831 11.2513 11.1831 11.0355C11.1831 10.8197 11.2689 10.6127 11.4215 10.4601C11.5741 10.3075 11.7811 10.2218 11.9969 10.2218C12.2127 10.2218 12.4197 10.3075 12.5723 10.4601C12.7249 10.6127 12.8106 10.8197 12.8106 11.0355ZM7.92814 7.78051C8.14396 7.78051 8.35094 7.69477 8.50354 7.54216C8.65615 7.38956 8.74189 7.18258 8.74189 6.96676C8.74189 6.75094 8.65615 6.54396 8.50354 6.39135C8.35094 6.23874 8.14396 6.15301 7.92814 6.15301C7.71232 6.15301 7.50533 6.23874 7.35273 6.39135C7.20012 6.54396 7.11439 6.75094 7.11439 6.96676C7.11439 7.18258 7.20012 7.38956 7.35273 7.54216C7.50533 7.69477 7.71232 7.78051 7.92814 7.78051Z" fill="white"/>
</svg>
