<svg width="33" height="33" viewBox="0 0 33 33" fill="none" xmlns="http://www.w3.org/2000/svg">
<path d="M16.2876 3.1438C8.92762 3.1438 2.95428 9.11713 2.95428 16.4771C2.95428 23.8371 8.92762 29.8105 16.2876 29.8105C23.6476 29.8105 29.621 23.8371 29.621 16.4771C29.621 9.11713 23.6476 3.1438 16.2876 3.1438ZM22.4743 12.2105C22.2743 14.3171 21.4076 19.4371 20.9676 21.7971C20.781 22.7971 20.4076 23.1305 20.061 23.1705C19.2876 23.2371 18.701 22.6638 17.9543 22.1705C16.781 21.3971 16.1143 20.9171 14.981 20.1705C13.661 19.3038 14.5143 18.8238 15.2743 18.0505C15.4743 17.8505 18.8876 14.7438 18.9543 14.4638C18.9635 14.4214 18.9623 14.3774 18.9507 14.3355C18.9391 14.2937 18.9174 14.2554 18.8876 14.2238C18.8076 14.1571 18.701 14.1838 18.6076 14.1971C18.4876 14.2238 16.621 15.4638 12.981 17.9171C12.4476 18.2771 11.9676 18.4638 11.541 18.4505C11.061 18.4371 10.1543 18.1838 9.47429 17.9571C8.63429 17.6905 7.98095 17.5438 8.03429 17.0771C8.06095 16.8371 8.39429 16.5971 9.02095 16.3438C12.9143 14.6505 15.501 13.5305 16.7943 12.9971C20.501 11.4505 21.261 11.1838 21.7676 11.1838C21.8743 11.1838 22.1276 11.2105 22.2876 11.3438C22.421 11.4505 22.461 11.5971 22.4743 11.7038C22.461 11.7838 22.4876 12.0238 22.4743 12.2105Z" fill="white"/>
</svg>
