<svg width="30" height="30" viewBox="0 0 30 30" fill="none" xmlns="http://www.w3.org/2000/svg">
<g clip-path="url(#clip0_1425_34894)">
<path d="M1.36254 14.8204C1.36186 17.341 2.00486 19.8021 3.22753 21.9714L1.24561 29.3833L8.65109 27.3944C10.6994 28.5365 12.9943 29.135 15.3264 29.1351H15.3325C23.0312 29.1351 29.2982 22.7185 29.3015 14.8316C29.3029 11.0099 27.8512 7.41618 25.2135 4.71246C22.5763 2.00897 19.069 0.519322 15.3319 0.517578C7.63232 0.517578 1.36583 6.93386 1.36265 14.8204" fill="url(#paint0_linear_1425_34894)"/>
<path d="M11.7178 8.62189C11.4469 8.00526 11.1619 7.99282 10.9043 7.982C10.6934 7.9727 10.4522 7.9734 10.2113 7.9734C9.9702 7.9734 9.57842 8.06631 9.24727 8.43666C8.91578 8.80735 7.98169 9.70317 7.98169 11.5251C7.98169 13.3472 9.27735 15.1081 9.45797 15.3554C9.63882 15.6022 11.9593 19.4608 15.6343 20.9453C18.6886 22.1789 19.3102 21.9335 19.973 21.8717C20.636 21.81 22.1123 20.9761 22.4135 20.1113C22.7149 19.2467 22.7149 18.5055 22.6245 18.3506C22.5342 18.1963 22.293 18.1036 21.9315 17.9185C21.5698 17.7333 19.7922 16.8374 19.4608 16.7137C19.1293 16.5903 18.8883 16.5286 18.6472 16.8994C18.406 17.2697 17.7137 18.1036 17.5026 18.3506C17.2918 18.5982 17.0807 18.629 16.7193 18.4437C16.3575 18.2579 15.193 17.8674 13.8116 16.6058C12.7367 15.6242 12.011 14.412 11.8001 14.0412C11.5892 13.671 11.7775 13.4703 11.9588 13.2857C12.1213 13.1198 12.3205 12.8533 12.5015 12.6371C12.6818 12.4208 12.7419 12.2665 12.8625 12.0196C12.9832 11.7724 12.9228 11.5561 12.8325 11.3708C12.7419 11.1856 12.0393 9.3541 11.7178 8.62189Z" fill="white"/>
</g>
<defs>
<linearGradient id="paint0_linear_1425_34894" x1="1404.04" y1="2887.09" x2="1404.04" y2="0.517578" gradientUnits="userSpaceOnUse">
<stop stop-color="#1FAF38"/>
<stop offset="1" stop-color="#60D669"/>
</linearGradient>
<clipPath id="clip0_1425_34894">
<rect width="29.0625" height="30" fill="white" transform="translate(0.742432)"/>
</clipPath>
</defs>
</svg>
