<svg width="32" height="30" viewBox="0 0 32 30" fill="none" xmlns="http://www.w3.org/2000/svg">
<g clip-path="url(#clip0_1425_34891)">
<path d="M16.2737 0C12.1638 0 8.21853 1.58133 5.3147 4.39336C2.40787 7.20651 0.774487 11.0217 0.773682 15C0.773682 18.9766 2.40845 22.7946 5.3147 25.6066C8.21853 28.4187 12.1638 30 16.2737 30C20.3836 30 24.3288 28.4187 27.2327 25.6066C30.1389 22.7946 31.7737 18.9766 31.7737 15C31.7737 11.0234 30.1389 7.20539 27.2327 4.39336C24.3288 1.58133 20.3836 0 16.2737 0Z" fill="url(#paint0_linear_1425_34891)"/>
<path d="M7.78977 14.8416C12.309 12.9366 15.3218 11.6805 16.8282 11.0737C21.1343 9.34101 22.028 9.04007 22.6116 9.02987C22.74 9.02788 23.0258 9.05858 23.2123 9.20448C23.3673 9.32753 23.4109 9.49394 23.4327 9.61077C23.452 9.72749 23.4787 9.99351 23.4569 10.2012C23.2244 12.573 22.2145 18.3288 21.701 20.9855C21.4855 22.1095 21.0568 22.4864 20.6427 22.5232C19.7417 22.6033 19.0588 21.9476 18.1869 21.3947C16.8234 20.5291 16.0532 19.9905 14.7284 19.1461C13.1978 18.1701 14.1908 17.6337 15.0627 16.7571C15.2903 16.5276 19.2574 13.0366 19.3324 12.72C19.3421 12.6804 19.3518 12.5327 19.2598 12.4549C19.1702 12.3769 19.037 12.4036 18.9401 12.4247C18.802 12.4547 16.6248 13.8487 12.401 16.6066C11.7834 17.0177 11.224 17.2181 10.7202 17.2076C10.1681 17.1961 9.10243 16.9048 8.31048 16.6559C7.34173 16.3505 6.56915 16.189 6.63696 15.6703C6.67087 15.4003 7.05594 15.124 7.78977 14.8416Z" fill="white"/>
</g>
<defs>
<linearGradient id="paint0_linear_1425_34891" x1="1550.77" y1="0" x2="1550.77" y2="3000" gradientUnits="userSpaceOnUse">
<stop stop-color="#2AABEE"/>
<stop offset="1" stop-color="#229ED9"/>
</linearGradient>
<clipPath id="clip0_1425_34891">
<rect width="31" height="30" fill="white" transform="translate(0.773682)"/>
</clipPath>
</defs>
</svg>
