<svg width="31" height="30" viewBox="0 0 31 30" fill="none" xmlns="http://www.w3.org/2000/svg">
<g clip-path="url(#clip0_1425_34898)">
<rect x="0.773682" width="30" height="30" rx="4" fill="white"/>
<path d="M4.10701 0C3.22296 0 2.37511 0.351189 1.74999 0.976311C1.12487 1.60143 0.773682 2.44928 0.773682 3.33333V26.6667C0.773682 27.5507 1.12487 28.3986 1.74999 29.0237C2.37511 29.6488 3.22296 30 4.10701 30H27.4403C28.3244 30 29.1722 29.6488 29.7974 29.0237C30.4225 28.3986 30.7737 27.5507 30.7737 26.6667V3.33333C30.7737 2.44928 30.4225 1.60143 29.7974 0.976311C29.1722 0.351189 28.3244 0 27.4403 0H4.10701ZM6.44035 5.83333H25.107C26.3903 5.83333 27.4403 6.86667 27.4403 8.16667V21.8333C27.4403 22.4522 27.1945 23.0457 26.7569 23.4832C26.3193 23.9208 25.7259 24.1667 25.107 24.1667H6.44035C5.15701 24.1667 4.10701 23.1167 4.10701 21.8333V8.16667C4.10701 6.86667 5.14035 5.83333 6.44035 5.83333ZM5.77368 8.33333V11.6667L15.7737 18.3333L25.7737 11.6667V8.33333L15.7737 15L5.77368 8.33333Z" fill="#FA1153"/>
</g>
<defs>
<clipPath id="clip0_1425_34898">
<rect x="0.773682" width="30" height="30" rx="4" fill="white"/>
</clipPath>
</defs>
</svg>
