<svg width="28" height="27" viewBox="0 0 28 27" fill="none" xmlns="http://www.w3.org/2000/svg">
<path d="M18.3849 0.143799H10.2049C2.73025 0.143799 0.954254 1.92113 0.954254 9.3798V17.5611C0.954254 25.0331 2.71825 26.8105 10.1903 26.8105H18.3716C25.8436 26.8105 27.6209 25.0465 27.6209 17.5745V9.39447C27.6209 1.9198 25.8569 0.143799 18.3849 0.143799ZM22.4823 19.1705H20.5369C19.8009 19.1705 19.5796 18.5745 18.2596 17.2545C17.1076 16.1438 16.6209 16.0051 16.3289 16.0051C15.9263 16.0051 15.8156 16.1158 15.8156 16.6718V18.4211C15.8156 18.8945 15.6623 19.1718 14.4263 19.1718C13.2267 19.0912 12.0635 18.7268 11.0324 18.1085C10.0013 17.4903 9.13181 16.6359 8.49559 15.6158C6.98515 13.7358 5.93418 11.5293 5.42626 9.1718C5.42626 8.8798 5.53692 8.6158 6.09292 8.6158H8.03826C8.53826 8.6158 8.71826 8.83847 8.91292 9.3518C9.85692 12.1305 11.4676 14.5465 12.1209 14.5465C12.3716 14.5465 12.4809 14.4358 12.4809 13.8105V10.9491C12.3983 9.6438 11.7049 9.53313 11.7049 9.06113C11.7138 8.93664 11.7709 8.82051 11.864 8.73737C11.9571 8.65423 12.0789 8.61063 12.2036 8.6158H15.2596C15.6769 8.6158 15.8156 8.8238 15.8156 9.3238V13.1851C15.8156 13.6025 15.9956 13.7411 16.1209 13.7411C16.3716 13.7411 16.5649 13.6025 17.0236 13.1438C18.0087 11.9424 18.8136 10.6039 19.4129 9.17047C19.4742 8.99829 19.5901 8.85087 19.743 8.75072C19.8958 8.65058 20.0773 8.60319 20.2596 8.6158H22.2049C22.7876 8.6158 22.9116 8.9078 22.7876 9.3238C22.0802 10.9084 21.205 12.4125 20.1769 13.8105C19.9676 14.1305 19.8836 14.2971 20.1769 14.6718C20.3703 14.9638 21.0516 15.5331 21.5103 16.0745C22.1768 16.7393 22.7303 17.5086 23.1489 18.3518C23.3156 18.8931 23.0369 19.1705 22.4823 19.1705Z" fill="white"/>
</svg>
