<svg width="16" height="17" viewBox="0 0 16 17" fill="none" xmlns="http://www.w3.org/2000/svg">
<g clip-path="url(#clip0_1020_22601)">
<path d="M5.82662 13.9529L5.82675 13.9531C6.43756 14.5408 7.21887 14.8334 8.00006 14.8334C8.78169 14.8334 9.56189 14.5406 10.165 13.9547L10.1668 13.9529C12.0461 12.1459 13.9775 9.41212 13.2591 6.24392C12.6229 3.44503 10.186 2.16669 8.00006 2.16669H8.00006H8.00006H8.00005H8.00005H8.00004H8.00004H8.00004H8.00003H8.00003H8.00002H8.00002H8.00002H8.00001H8.00001H8H8H7.99999H7.99999H7.99998H7.99998H7.99998H7.99997H7.99997H7.99996H7.99996H7.99995H7.99995H7.99994H7.99994H7.99993H7.99992H7.99992H7.99991H7.99991H7.9999H7.99989H7.99989H7.99988H7.99987H7.99987H7.99986H7.99986H7.99986H7.99985H7.99985H7.99984H7.99984H7.99984H7.99983H7.99983H7.99982H7.99982H7.99982H7.99981H7.99981H7.9998H7.9998H7.99979H7.99979H7.99978H7.99978H7.99977H7.99977H7.99976H7.99976H7.99975H7.99975H7.99974H7.99974H7.99973H7.99973H7.99972H7.99972H7.99971H7.99971H7.9997H7.9997H7.99969H7.99968H7.99968H7.99967H7.99967H7.99966H7.99965H7.99965H7.99964H7.99964H7.99963H7.99962H7.99962H7.99961H7.9996H7.9996H7.99959H7.99958H7.99958H7.99957H7.99956H7.99956H7.99955H7.99954H7.99953H7.99953H7.99952H7.99951H7.99951H7.9995H7.99949H7.99948H7.99948H7.99947H7.99946H7.99945H7.99944H7.99944H7.99943H7.99942H7.99941H7.9994H7.99939H7.99939H7.99938H7.99937H7.99936H7.99935H7.99934H7.99933H7.99932H7.99932H7.99931H7.9993H7.99929H7.99928H7.99927H7.99926H7.99925H7.99924H7.99923H7.99922H7.99921H7.9992H7.99919H7.99918H7.99917H7.99916H7.99915H7.99914H7.99913H7.99912H7.99911H7.9991H7.99909H7.99907H7.99906H7.99905H7.99904H7.99903H7.99902H7.99901H7.999H7.99898H7.99897H7.99896H7.99895H7.99894H7.99893H7.99891H7.9989H7.99889H7.99888H7.99886H7.99885H7.99884H7.99883H7.99881H7.9988H7.99879H7.99878H7.99876H7.99875H7.99874H7.99872H7.99871H7.9987H7.99868H7.99867H7.99865H7.99864H7.99863H7.99861H7.9986H7.99858H7.99857H7.99856H7.99854H7.99853H7.99851H7.9985H7.99848H7.99847H7.99845H7.99844H7.99842H7.99841H7.99839H7.99837H7.99836H7.99834H7.99833H7.99831H7.99829H7.99828H7.99826H7.99825H7.99823H7.99821H7.9982H7.99818H7.99816H7.99815H7.99813H7.99811H7.99809H7.99808H7.99806H7.99804H7.99802H7.99801H7.99799H7.99797H7.99795H7.99793H7.99792H7.9979H7.99788H7.99786H7.99784H7.99782H7.9978H7.99778H7.99777H7.99775H7.99773H7.99771H7.99769H7.99767H7.99765H7.99763H7.99761H7.99759H7.99757H7.99755H7.99753H7.99751H7.99749H7.99747H7.99744H7.99742H7.9974H7.99738H7.99736H7.99734H7.99732H7.99729H7.99727H7.99725H7.99723H7.99721H7.99718H7.99716H7.99714H7.99712H7.99709H7.99707H7.99705H7.99703H7.997H7.99698H7.99696H7.99693H7.99691H7.99688H7.99686H7.99684H7.99681H7.99679H7.99676H7.99674H7.99671H7.99669H7.99667H7.99664H7.99661H7.99659H7.99656H7.99654H7.99651H7.99649H7.99646H7.99644H7.99641H7.99638H7.99636H7.99633H7.9963H7.99628H7.99625H7.99622H7.9962H7.99617H7.99614H7.99611H7.99609H7.99606H7.99603H7.996H7.99598H7.99595H7.99592H7.99589H7.99586H7.99583H7.9958H7.99577H7.99575H7.99572H7.99569H7.99566H7.99563H7.9956H7.99557H7.99554H7.99551H7.99548H7.99545H7.99542H7.99538H7.99535H7.99532H7.99529H7.99526H7.99523H7.9952H7.99517H7.99513H7.9951H7.99507H7.99504H7.995H7.99497H7.99494H7.99491H7.99487H7.99484H7.99481H7.99477H7.99474H7.99471H7.99467H7.99464H7.9946H7.99457H7.99454H7.9945H7.99447H7.99443H7.9944H7.99436H7.99433H7.99429H7.99426H7.99422H7.99418H7.99415H7.99411H7.99408H7.99404H7.994H7.99397H7.99393H7.99389H7.99385H7.99382H7.99378H7.99374H7.9937H7.99367H7.99363H7.99359H7.99355H7.99351H7.99347H7.99344H7.9934C5.81281 2.16669 3.37034 3.43945 2.73435 6.23725L5.82662 13.9529ZM5.82662 13.9529C3.94772 12.1463 2.01602 9.40585 2.7343 6.2375L5.82662 13.9529ZM5.40006 7.37335C5.40006 8.8095 6.56392 9.97335 8.00006 9.97335C9.43621 9.97335 10.6001 8.8095 10.6001 7.37335C10.6001 5.93721 9.43621 4.77335 8.00006 4.77335C6.56392 4.77335 5.40006 5.93721 5.40006 7.37335Z" fill="#B2C7CB" stroke="#B2C7CB"/>
</g>
<defs>
<clipPath id="clip0_1020_22601">
<rect width="16" height="16" fill="white" transform="translate(0 0.5)"/>
</clipPath>
</defs>
</svg>
