<svg width="24" height="25" viewBox="0 0 24 25" fill="none" xmlns="http://www.w3.org/2000/svg">
<g clip-path="url(#clip0_815_10195)">
<path d="M20.6201 8.87187C19.5701 4.25187 15.5401 2.17188 12.0001 2.17188C12.0001 2.17188 12.0001 2.17188 11.9901 2.17188C8.4601 2.17188 4.4201 4.24187 3.3701 8.86187C2.2001 14.0219 5.3601 18.3919 8.2201 21.1419C9.2801 22.1619 10.6401 22.6719 12.0001 22.6719C13.3601 22.6719 14.7201 22.1619 15.7701 21.1419C18.6301 18.3919 21.7901 14.0319 20.6201 8.87187ZM12.0001 13.8819C10.2601 13.8819 8.8501 12.4719 8.8501 10.7319C8.8501 8.99188 10.2601 7.58187 12.0001 7.58187C13.7401 7.58187 15.1501 8.99188 15.1501 10.7319C15.1501 12.4719 13.7401 13.8819 12.0001 13.8819Z" fill="#B2C7CB"/>
</g>
<defs>
<clipPath id="clip0_815_10195">
<rect width="24" height="24" fill="white" transform="translate(0 0.421875)"/>
</clipPath>
</defs>
</svg>
