<svg width="18" height="18" viewBox="0 0 18 18" fill="none" xmlns="http://www.w3.org/2000/svg">
<g clip-path="url(#clip0_1214_25170)">
<path d="M15.1058 6.56004C14.3621 3.28754 11.5075 1.81421 9.00001 1.81421C9.00001 1.81421 9.00001 1.81421 8.99292 1.81421C6.49251 1.81421 3.63084 3.28046 2.88709 6.55296C2.05834 10.208 4.29667 13.3034 6.32251 15.2513C7.07334 15.9738 8.03667 16.335 9.00001 16.335C9.96334 16.335 10.9267 15.9738 11.6704 15.2513C13.6963 13.3034 15.9346 10.215 15.1058 6.56004ZM9.00001 10.1088C7.76751 10.1088 6.76876 9.11004 6.76876 7.87754C6.76876 6.64504 7.76751 5.64629 9.00001 5.64629C10.2325 5.64629 11.2313 6.64504 11.2313 7.87754C11.2313 9.11004 10.2325 10.1088 9.00001 10.1088Z" fill="#FA1153"/>
</g>
<defs>
<clipPath id="clip0_1214_25170">
<rect width="17" height="17" fill="white" transform="translate(0.5 0.574707)"/>
</clipPath>
</defs>
</svg>
