<svg width="48" height="27" viewBox="0 0 48 27" fill="none" xmlns="http://www.w3.org/2000/svg">
<path fill-rule="evenodd" clip-rule="evenodd" d="M42.7463 3.25594V3.92385C42.7463 4.03517 42.7463 3.92385 42.7463 4.03517L42.8576 6.37286C42.8576 6.48418 42.8576 6.48418 42.8576 6.5955C42.9689 7.70868 42.9689 8.82186 43.0802 9.71241L43.8595 14.8331C43.8595 15.167 43.8595 15.2783 43.9708 15.501L44.3047 17.3934C44.8613 19.3971 45.9745 22.7367 46.7537 24.8517C46.8651 25.1857 47.0877 25.7423 47.199 26.1875H31.6144C31.2805 26.1875 30.7239 26.1875 30.6126 26.1875C30.1673 26.1875 29.8333 26.1875 29.4994 26.1875L29.8333 24.7404C29.9447 24.2951 30.2786 23.4046 30.3899 22.848L34.5087 9.0445C34.62 8.71055 34.62 8.37659 34.7314 8.04264C34.8427 7.82 34.954 7.37472 35.0653 7.04077C35.2879 6.48418 35.1766 6.70681 35.5106 6.37286L38.8501 3.47858C38.8501 3.47858 38.8501 3.47858 38.9615 3.47858L39.518 2.92199L39.6294 2.81067L42.8576 0.02771C42.9689 0.250347 42.8576 2.03144 42.8576 2.58803C42.7463 2.81067 42.7463 2.81067 42.7463 2.92199V3.25594Z" fill="#FFDA57"/>
<path fill-rule="evenodd" clip-rule="evenodd" d="M28.1635 24.629L19.4807 24.1838C18.4788 24.1838 18.7015 24.5177 19.2581 22.6253C19.2581 22.18 19.4807 21.8461 19.592 21.5121L21.8184 13.6085C21.9297 13.2746 22.041 12.8293 22.1524 12.4953L23.1542 9.15578C23.2655 8.93315 23.2655 8.82183 23.2655 8.59919C23.3769 8.26524 23.3769 8.26524 23.4882 8.0426C23.5995 7.81996 24.0448 5.92755 24.1561 5.81623L28.0522 3.14459C28.1635 3.03327 28.2749 2.92195 28.4975 2.81064C28.9428 2.47668 30.7239 1.25218 31.0578 1.02954L30.7239 2.03141C30.6126 2.14273 30.6126 2.25404 30.6126 2.36536L30.056 3.8125C29.9446 4.25777 29.722 4.70305 29.6107 5.14832C29.1654 6.37282 28.3862 9.2671 28.2749 10.4916C28.1635 10.8256 28.1635 10.9369 28.0522 11.3822L27.9409 12.1614C27.607 15.0557 27.4956 15.2783 27.4956 18.6178C27.4956 19.5084 27.7183 22.4027 27.8296 23.1819C27.9409 23.5159 28.0522 23.7385 28.0522 23.9611L28.1635 24.629Z" fill="#FF0055"/>
<path fill-rule="evenodd" clip-rule="evenodd" d="M15.028 22.7367L3.78483 20.6217C3.45087 20.6217 3.22823 20.5103 2.89428 20.5103C2.56032 20.399 2.22637 20.2877 1.89241 20.2877L0 19.8424L2.78296 18.0613C2.89428 17.95 3.0056 17.8387 3.11692 17.8387L4.56405 16.8368C4.67537 16.7255 4.67537 16.7255 4.89801 16.6142C5.12065 16.5029 5.34328 16.2802 5.56592 16.1689C5.89988 15.9463 6.01119 15.835 6.23383 15.7237L8.57152 14.1652C8.68284 14.0539 8.68284 14.0539 8.79415 14.0539L14.0261 10.4917C14.1374 10.3804 14.2488 10.3804 14.3601 10.2691C16.1412 9.04455 18.4789 7.48609 20.3713 6.26159L22.4863 4.81445L19.1468 10.1577C19.0354 10.2691 18.9241 10.4917 18.8128 10.603L17.9223 12.4954C17.0317 14.2765 16.1412 16.8368 15.8072 18.7293C15.6959 19.5085 15.4733 19.9538 15.3619 20.733C15.3619 20.8443 15.3619 20.8443 15.3619 21.0669L15.028 22.7367Z" fill="#00A3A1"/>
</svg>
